<?xml version="1.0" encoding="utf-8"?>
<!DOCTYPE svg PUBLIC "-//W3C//DTD SVG 1.0//EN" "http://www.w3.org/TR/2001/REC-SVG-20010904/DTD/svg10.dtd">
<svg version="1.0" xmlns="http://www.w3.org/2000/svg" width="100%" height="100%" viewBox="0 0 3000 1349" preserveAspectRatio="xMidYMid meet">
 <g fill="#ffffff">
  <path d="M200.3 675.7 c-109.5 -186.6 -199 -339.4 -198.8 -339.6 0.6 -0.5 786.7 -6.2 787.2 -5.7 0.5 0.5 -387.5 684 -388.5 684.3 -0.4 0.1 -90.3 -152.4 -199.9 -339z m186.2 110.8 l-0.6 -4 -68.1 -38.5 c-37.4 -21.2 -69.2 -39.1 -70.5 -39.8 l-2.4 -1.3 2.8 4.8 c1.5 2.7 33.4 57 70.8 120.6 l68 115.7 0.3 -76.8 c0.2 -42.2 0 -78.5 -0.3 -80.7z m95.9 34.7 c37.3 -65.6 67.6 -119.5 67.4 -119.6 -0.1 -0.2 -31.5 17.9 -69.5 40.2 l-69.3 40.6 0 48.5 c0 69.1 1 113.6 2.5 111.3 0.6 -0.9 31.7 -55.4 68.9 -121z m-2.6 -107.7 c62.1 -36.5 79.6 -47.2 78.4 -47.9 -1 -0.5 -37.4 -21.1 -81 -45.8 -43.6 -24.6 -79.7 -44.8 -80.2 -44.8 -1.6 0 -159.5 93 -159.5 94 0 1.2 159.5 92 161.1 91.7 0.7 -0.1 37.2 -21.3 81.2 -47.2z m-174.4 -113.5 l79.3 -46.5 -0.5 -70 c-0.2 -38.5 -0.7 -80.4 -1.1 -93.1 l-0.6 -23.2 -80.2 47 -80.3 47.1 0.6 90.6 c0.3 49.8 0.7 91.6 1 92.9 0.3 1.3 0.9 2.2 1.5 2 0.5 -0.2 36.7 -21.2 80.3 -46.8z m266 -13.2 c-0.3 -32.1 -0.7 -74.1 -1 -93.3 l-0.6 -35 -79.9 -45.5 c-44 -25 -80.5 -45.7 -81.1 -45.9 -1.2 -0.4 -0.2 186.2 1 186.7 0.4 0.1 36.7 20.7 80.7 45.6 44 25 80.3 45.4 80.6 45.5 0.4 0.1 0.5 -26.1 0.3 -58.1z m-373.9 -89.4 l-0.7 -36.2 -70 -39.7 c-38.5 -21.8 -70.1 -39.5 -70.2 -39.4 -0.2 0.2 31.5 54.3 70.3 120.3 l70.6 119.8 0.3 -44.3 c0.2 -24.4 0 -60.7 -0.3 -80.5z m468.9 0.1 c37.5 -66 68.2 -120.1 68 -120.3 -0.1 -0.2 -31.5 18 -69.8 40.4 l-69.6 40.8 0 30.5 c0 56.3 1.3 131.6 2.2 130.1 0.5 -0.8 31.7 -55.5 69.2 -121.5z m-387.4 -98.5 c36 -21.1 66.4 -38.9 67.5 -39.7 1.7 -1.2 -13.9 -1.3 -114 -0.7 -63.8 0.4 -126.7 0.9 -139.7 1.3 l-23.7 0.6 70.2 39.7 c62.5 35.3 70.4 39.5 72.2 38.4 1.1 -0.7 31.5 -18.5 67.5 -39.6z m372.7 -2.7 c68.3 -40.1 69.4 -40.8 65.2 -41.1 -4.7 -0.4 -274.2 1.7 -274.6 2.1 -0.2 0.3 138.5 79.3 139.6 79.6 0.2 0.1 31.6 -18.2 69.8 -40.6z"/>
  <path d="M2424 896 l0 -39 287 0 287 0 0 39 0 39 -287 0 -287 0 0 -39z"/>
  <path d="M800 674 l0 -259 40.5 0 c31.8 0 40.5 0.3 40.5 1.3 -0.1 0.6 16.5 55.9 36.7 122.8 l36.8 121.6 0.3 -122.9 0.2 -122.8 40.5 0 40.5 0 0 259 0 259 -40.3 0 -40.4 0 -9.1 -28.7 c-5.1 -15.9 -21.8 -68.2 -37.2 -116.3 l-27.9 -87.5 -0.1 116.3 0 116.2 -40.5 0 -40.5 0 0 -259z"/>
  <path d="M1105.5 930.8 c0.5 -2.4 16.5 -104.1 16.5 -105.2 0 -0.3 -4 -0.6 -9 -0.6 l-9 0 0 -40.5 0 -40.4 15.7 -0.3 15.7 -0.3 26 -164.2 26.1 -164.3 49.7 0 49.7 0 0.6 3.3 c2.5 14.2 82.5 511.5 82.5 512.9 0 1.7 -2.3 1.8 -40.5 1.8 -22.3 0 -40.5 -0.1 -40.6 -0.2 0 -0.2 -11.7 -81.3 -25.9 -180.3 -14.1 -99 -26 -179.3 -26.3 -178.5 -0.3 0.8 -4.9 37.7 -10.2 82 -5.3 44.3 -9.9 82.2 -10.2 84.3 l-0.6 3.7 10.7 0 10.6 0 0 40.5 0 40.5 -17.2 0.2 -17.1 0.3 -5.8 36.5 c-3.2 20.1 -7 44.3 -8.5 53.8 l-2.7 17.2 -40.4 0 -40.3 0 0.5 -2.2z"/>
  <path d="M1420 763.5 l0 -169.5 70 0 70 0 0 -49 0 -49 -30 0 -30 0 -0.2 47 -0.3 46.9 -39.7 -78.5 -39.8 -78.5 0 -9 0 -9 85.3 0.4 c92.7 0.4 88.2 0.1 100.9 6.1 12 5.7 21.8 15.2 27.4 26.5 6.2 12.6 5.8 7.6 6.1 92.1 l0.3 77.5 -2.8 3 c-5.5 5.9 -15.7 12 -26.7 15.9 -1.6 0.6 -0.9 1.1 3.7 3 14.2 5.8 23 13.6 24.8 22 0.8 3.6 1 37.3 0.8 114.6 l-0.3 109.5 -2.7 7.5 c-6.7 18.3 -21.2 32 -39.9 37.8 -4.8 1.4 -15.1 1.6 -91.1 1.9 l-85.8 0.4 0 -169.6z m140 0 l0 -88.5 -30 0 -30 0 0 88.5 0 88.5 30 0 30 0 0 -88.5z"/>
  <path d="M1707 674 l0 -259 40.5 0 40.5 0 0 218.5 0 218.5 64.5 0 64.5 0 0 40.5 0 40.5 -105 0 -105 0 0 -259z"/>
  <path d="M1988 931.2 c0 -1 3.6 -24.6 8 -52.6 4.4 -27.9 8 -51.4 8 -52.2 0 -1.1 -1.9 -1.4 -9 -1.4 l-9 0 0 -40.5 0 -40.5 16 0 c8.8 0 16 -0.4 16 -0.8 0 -0.7 50.3 -317.9 51.5 -324.9 l0.6 -3.3 49.4 0 49.5 0 0.5 2.3 c0.3 1.2 18.9 116.3 41.5 255.7 22.5 139.4 41.2 255 41.5 256.8 l0.6 3.2 -40.9 0 -41 0 -0.6 -3.2 c-0.3 -1.8 -11.8 -82.9 -25.6 -180.3 -13.8 -97.3 -25.1 -177.6 -25.3 -178.4 -0.1 -0.8 -4.9 36.8 -10.5 83.5 -5.7 46.7 -10.6 85.9 -10.9 87.2 -0.5 2.2 -0.4 2.2 10.1 2.2 l10.6 0 0 40.5 0 40.5 -16.9 0 -16.9 0 -0.6 2.8 c-0.3 1.5 -3.9 24.8 -8.1 51.7 -4.1 27 -7.7 50 -8 51.3 l-0.5 2.2 -40 0 c-37.7 0 -40 -0.1 -40 -1.8z"/>
  <path d="M2424 673.8 l0 -154.3 23.2 0.2 23.3 0.3 0.5 129.7 0.5 129.8 38 0.5 c20.9 0.3 38.1 0.7 38.3 0.8 0.1 0.1 0.2 10.8 0.2 23.7 l0 23.5 -62 0 -62 0 0 -154.2z"/>
  <path d="M2591.7 825.3 c0.2 -1.6 0.8 -5.3 1.3 -8.3 0.5 -3 1.4 -8.5 2 -12.2 1.3 -8.7 2.6 -16.7 4.6 -29.7 1.9 -11.9 1.7 -12.4 -5.3 -11.9 l-4.3 0.3 0 -23.7 0 -23.8 9 0 c10.5 0 10.5 0 12.1 -11.2 1.2 -8.8 2.4 -17.1 3.9 -25.8 0.6 -3.6 1.5 -9.2 2 -12.5 0.5 -3.3 1.4 -8.9 1.9 -12.5 3.5 -22 4.3 -27.1 5.2 -32.5 0.5 -3.3 1.3 -8.5 1.8 -11.5 1.3 -7.3 3 -18.1 4.1 -25.5 0.5 -3.3 1.4 -8.9 2 -12.5 0.6 -3.6 1.5 -9.2 2 -12.5 0.5 -3.3 1.4 -8.9 2 -12.5 0.6 -3.6 1.5 -9.2 2 -12.5 0.5 -3.3 1.2 -7.9 1.6 -10.2 l0.7 -4.2 28.9 -0.3 c17.3 -0.2 29.3 0.1 29.9 0.6 0.5 0.6 0.9 2.1 0.9 3.5 0 1.4 0.5 5.2 1.1 8.5 1.6 9.3 2.7 15.4 3.9 23.1 0.6 3.9 1.5 9.5 2 12.5 0.6 3 1.9 11.4 3 18.5 5.4 34.2 6.8 43.2 8 50 0.8 4.9 2 12.1 4.1 25.5 2.1 13 2.8 17.5 5.9 35.8 0.5 3.1 1.4 8.6 1.9 12.2 0.6 3.6 2 12.4 3.2 19.5 2.7 17 3.8 23.7 4.9 31 0.5 3.3 1.4 8.8 2 12.3 0.5 3.4 1.5 9 2 12.5 0.6 3.4 1.5 8.9 2 12.2 0.5 3.3 1.4 8.9 2 12.5 0.6 3.6 1.4 9.1 1.9 12.3 l0.7 5.7 -23.6 0 -23.7 0 -1.1 -5.1 c-0.7 -2.8 -1.2 -6.2 -1.2 -7.7 0 -1.4 -0.4 -5.1 -1 -8.1 -0.5 -3.1 -1.4 -8.9 -2 -12.8 -2.1 -15 -3.1 -22 -4 -27.8 -0.5 -3.3 -1.4 -9.6 -2 -14 -0.6 -4.4 -1.5 -10.7 -2 -14 -0.5 -3.3 -1.7 -11.4 -2.5 -18 -0.9 -6.6 -2 -14.7 -2.5 -18 -0.5 -3.3 -1.4 -9.6 -2 -14 -1.6 -12.2 -4.7 -33.5 -6 -42 -0.5 -3.3 -1.4 -9.8 -2 -14.5 -1.7 -12.1 -1.9 -13 -3.4 -13 -0.9 0 -1.9 5.1 -3.5 18.8 -1.2 10.3 -2.6 21.6 -3.1 25.2 -0.5 3.6 -1.4 10.6 -2 15.5 -0.6 5 -1.5 12.2 -2 16 -0.5 3.9 -1.2 10.3 -1.6 14.3 l-0.6 7.2 6.1 0 6.1 0 0 23.5 0 23.5 -8.9 0 c-10.6 0 -11.5 0.6 -12.5 8.2 -0.7 5.6 -4 26.4 -5.6 35.8 -0.5 3 -1.5 9 -2.2 13.3 l-1.2 7.7 -23.7 0 -23.6 0 0.4 -2.7z"/>
  <path d="M2779 727 l0 -101 41.8 -0.2 41.7 -0.3 0 -29 0 -29 -17.1 -0.3 c-13.4 -0.2 -17.4 0 -18.2 1.1 -0.8 0.9 -1.3 9.8 -1.4 26.9 l-0.3 25.6 -23.3 -46.2 c-20.2 -40 -23.2 -46.7 -23.2 -50.6 l0 -4.5 51.2 0.3 c58.5 0.3 58.3 0.2 66.9 7.9 6.2 5.6 8.6 9.1 11 15.6 1.8 4.8 1.9 8.5 1.9 51.3 l0 46.2 -3.2 2.7 c-1.8 1.5 -5.6 3.9 -8.5 5.3 -2.9 1.5 -5.3 2.9 -5.3 3.2 0 0.4 2.2 1.6 4.8 2.8 2.6 1.2 6.3 3.8 8.2 5.7 l3.5 3.6 0.3 66.7 c0.3 69.2 0.2 71 -3.9 79.2 -2 4.2 -9.2 11.1 -14 13.6 -8.1 4.1 -11.3 4.4 -63.1 4.4 l-49.8 0 0 -101z m83.8 0.5 c0.2 -48 0.1 -52.1 -1.5 -53.2 -2.1 -1.6 -28.8 -1.8 -32.7 -0.3 l-2.6 1 0 51.8 c0 28.5 0.3 52.2 0.7 52.6 0.4 0.3 8.6 0.5 18.2 0.4 l17.6 -0.3 0.3 -52z"/>
  <path d="M2951 803 l0 -25 24 0 24 0 0 25 0 25 -24 0 -24 0 0 -25z"/>
 </g>
</svg>